<svg width="20" height="21" viewBox="0 0 20 21" fill="none" xmlns="http://www.w3.org/2000/svg">
<path d="M15.3408 11.4678C17.6378 11.4678 19.5 13.33 19.5 15.627C19.4998 17.9238 17.6377 19.7861 15.3408 19.7861C13.044 19.7861 11.1818 17.9237 11.1816 15.627C11.1816 13.33 13.0439 11.4678 15.3408 11.4678ZM1.19727 11.9043H7.24805C7.63274 11.9045 7.94434 12.2168 7.94434 12.6016V18.6523C7.94414 19.0369 7.63261 19.3484 7.24805 19.3486H1.19727C0.812519 19.3486 0.500201 19.037 0.5 18.6523V12.6016C0.5 12.2167 0.812396 11.9043 1.19727 11.9043ZM8.58301 0.864258C8.84684 0.37873 9.54379 0.378727 9.80762 0.864258L13.5537 7.75781C13.8058 8.22207 13.4697 8.78697 12.9414 8.78711H5.44922C4.92094 8.78695 4.58481 8.22206 4.83691 7.75781L8.58301 0.864258Z" stroke="none"/>
</svg>
