<svg width="20" height="21" viewBox="0 0 20 21" fill="none" xmlns="http://www.w3.org/2000/svg">
<path d="M13 20V12C13 11.7348 12.8946 11.4804 12.7071 11.2929C12.5196 11.1054 12.2652 11 12 11H8C7.73478 11 7.48043 11.1054 7.29289 11.2929C7.10536 11.4804 7 11.7348 7 12V20" stroke="#858585" stroke-linecap="round" stroke-linejoin="round"/>
<path d="M1 9C0.99993 8.70907 1.06333 8.42162 1.18579 8.15772C1.30824 7.89381 1.4868 7.6598 1.709 7.472L8.709 1.473C9.06999 1.16791 9.52736 1.00052 10 1.00052C10.4726 1.00052 10.93 1.16791 11.291 1.473L18.291 7.472C18.5132 7.6598 18.6918 7.89381 18.8142 8.15772C18.9367 8.42162 19.0001 8.70907 19 9V18C19 18.5304 18.7893 19.0391 18.4142 19.4142C18.0391 19.7893 17.5304 20 17 20H3C2.46957 20 1.96086 19.7893 1.58579 19.4142C1.21071 19.0391 1 18.5304 1 18V9Z" stroke="#858585" stroke-linecap="round" stroke-linejoin="round"/>
</svg>
