<svg width="20" height="20" viewBox="0 0 20 20" fill="none" xmlns="http://www.w3.org/2000/svg">
<path d="M1 12C1 11.4477 1.44772 11 2 11H8C8.55228 11 9 11.4477 9 12V18C9 18.5523 8.55228 19 8 19H2C1.44772 19 1 18.5523 1 18V12Z" stroke="#858585"/>
<path d="M9 12C9 11.4477 9.44772 11 10 11H16C16.5523 11 17 11.4477 17 12V18C17 18.5523 16.5523 19 16 19H10C9.44772 19 9 18.5523 9 18V12Z" stroke="#858585"/>
<path d="M1 4C1 3.44772 1.44772 3 2 3H8C8.55228 3 9 3.44772 9 4V10C9 10.5523 8.55228 11 8 11H2C1.44772 11 1 10.5523 1 10V4Z" stroke="#858585"/>
<rect x="12" y="1" width="7" height="7" rx="3.5" stroke="#858585"/>
</svg>
