<svg width="8" height="2" viewBox="0 0 8 2" fill="none" xmlns="http://www.w3.org/2000/svg">
<path d="M1.75 1C1.75 1.41421 1.41421 1.75 1 1.75C0.585786 1.75 0.25 1.41421 0.25 1C0.25 0.585786 0.585786 0.25 1 0.25C1.41421 0.25 1.75 0.585786 1.75 1Z" fill="#808080"/>
<path d="M4.75 1C4.75 1.41421 4.41421 1.75 4 1.75C3.58579 1.75 3.25 1.41421 3.25 1C3.25 0.585786 3.58579 0.25 4 0.25C4.41421 0.25 4.75 0.585786 4.75 1Z" fill="#808080"/>
<path d="M7.75 1C7.75 1.41421 7.41421 1.75 7 1.75C6.58579 1.75 6.25 1.41421 6.25 1C6.25 0.585786 6.58579 0.25 7 0.25C7.41421 0.25 7.75 0.585786 7.75 1Z" fill="#808080"/>
</svg>
